<svg width="15.000000" height="13.000000" viewBox="0 0 15 13" fill="none" xmlns="http://www.w3.org/2000/svg" xmlns:xlink="http://www.w3.org/1999/xlink">
	<desc>
			Created with Pixso.
	</desc>
	<defs/>
	<path id="directions_car" d="M2 10.83L2 11.25C2 11.59 1.87 11.89 1.63 12.13C1.39 12.37 1.09 12.5 0.75 12.5C0.4 12.5 0.1 12.37 -0.14 12.13C-0.38 11.89 -0.5 11.59 -0.5 11.25L-0.5 5.29C-0.5 5.19 -0.5 5.09 -0.48 5C-0.47 4.9 -0.45 4.81 -0.42 4.72L1.14 0.29C1.25 -0.05 1.45 -0.32 1.75 -0.53C2.04 -0.73 2.36 -0.84 2.72 -0.84L11.27 -0.84C11.63 -0.84 11.95 -0.73 12.25 -0.53C12.54 -0.32 12.74 -0.05 12.85 0.29L14.41 4.72C14.44 4.81 14.46 4.9 14.47 5C14.49 5.09 14.5 5.19 14.5 5.29L14.5 11.25C14.5 11.59 14.37 11.89 14.13 12.13C13.89 12.37 13.59 12.5 13.25 12.5C12.9 12.5 12.6 12.37 12.36 12.13C12.12 11.89 12 11.59 12 11.25L12 10.83L2 10.83ZM1.83 3.33L12.16 3.33L11.29 0.83L2.7 0.83L1.83 3.33ZM3.25 8.33C3.59 8.33 3.89 8.21 4.13 7.96C4.37 7.72 4.5 7.43 4.5 7.08C4.5 6.73 4.37 6.44 4.13 6.19C3.89 5.95 3.59 5.83 3.25 5.83C2.9 5.83 2.6 5.95 2.36 6.19C2.12 6.44 2 6.73 2 7.08C2 7.43 2.12 7.72 2.36 7.96C2.6 8.21 2.9 8.33 3.25 8.33ZM10.75 8.33C11.09 8.33 11.39 8.21 11.63 7.96C11.87 7.72 12 7.43 12 7.08C12 6.73 11.87 6.44 11.63 6.19C11.39 5.95 11.09 5.83 10.75 5.83C10.4 5.83 10.1 5.95 9.86 6.19C9.62 6.44 9.5 6.73 9.5 7.08C9.5 7.43 9.62 7.72 9.86 7.96C10.1 8.21 10.4 8.33 10.75 8.33Z" fill="#584B4D" fill-opacity="1.000000" fill-rule="nonzero"/>
</svg>
