<svg width="25.000000" height="18.000000" viewBox="0 0 25 18" fill="none" xmlns="http://www.w3.org/2000/svg" xmlns:xlink="http://www.w3.org/1999/xlink">
	<desc>
			Created with Pixso.
	</desc>
	<defs>
		<clipPath id="clip23_27819">
			<rect id="en" width="25.000000" height="18.000000" fill="white" fill-opacity="0"/>
		</clipPath>
	</defs>
	<rect id="en" width="25.000000" height="18.000000" fill="#FFFFFF" fill-opacity="0"/>
	<g clip-path="url(#clip23_27819)">
		<path id="Vector" d="M0 0L25 0L25 16L0 16L0 0Z" fill="#FFFFFF" fill-opacity="1.000000" fill-rule="evenodd"/>
		<path id="Vector" d="M0 3.69L25 3.69L25 4.91L0 4.91L0 3.69Z" fill="#FFFFFF" fill-opacity="1.000000" fill-rule="evenodd"/>
		<path id="Vector" d="M0 4L25 4L25 6L0 6L0 4Z" fill="#CB001C" fill-opacity="1.000000" fill-rule="evenodd"/>
		<path id="Vector" d="M0 0L25 0L25 2L0 2L0 0Z" fill="#CB001C" fill-opacity="1.000000" fill-rule="evenodd"/>
		<path id="Vector" d="M0 0L12.53 0L12.53 8L0 8L0 0Z" fill="#2A3560" fill-opacity="1.000000" fill-rule="evenodd"/>
		<path id="Vector" d="M1.97 1L2.2 1.71L2.97 1.71L2.35 2.17L2.58 2.9L1.97 2.46L1.35 2.9L1.58 2.17L0.97 1.71L1.75 1.71L1.97 1Z" fill="#FFFFFF" fill-opacity="1.000000" fill-rule="nonzero"/>
		<path id="Vector" d="M5.97 1L6.2 1.71L6.97 1.71L6.35 2.17L6.58 2.9L5.97 2.46L5.35 2.9L5.58 2.17L4.97 1.71L5.75 1.71L5.97 1Z" fill="#FFFFFF" fill-opacity="1.000000" fill-rule="nonzero"/>
		<path id="Vector" d="M9.97 1L10.21 1.71L10.98 1.71L10.36 2.17L10.59 2.9L9.97 2.46L9.35 2.9L9.58 2.17L8.97 1.71L9.75 1.71L9.97 1Z" fill="#FFFFFF" fill-opacity="1.000000" fill-rule="nonzero"/>
		<path id="Vector" d="M3.97 3L4.2 3.71L4.97 3.71L4.35 4.17L4.58 4.9L3.97 4.46L3.35 4.9L3.58 4.17L2.97 3.71L3.75 3.71L3.97 3Z" fill="#FFFFFF" fill-opacity="1.000000" fill-rule="nonzero"/>
		<path id="Vector" d="M7.97 3L8.2 3.71L8.97 3.71L8.35 4.17L8.58 4.9L7.97 4.46L7.35 4.9L7.58 4.17L6.97 3.71L7.75 3.71L7.97 3Z" fill="#FFFFFF" fill-opacity="1.000000" fill-rule="nonzero"/>
		<path id="Vector" d="M1.97 5L2.2 5.71L2.97 5.71L2.35 6.17L2.58 6.9L1.97 6.46L1.35 6.9L1.58 6.17L0.97 5.71L1.75 5.71L1.97 5Z" fill="#FFFFFF" fill-opacity="1.000000" fill-rule="nonzero"/>
		<path id="Vector" d="M5.97 5L6.2 5.71L6.97 5.71L6.35 6.17L6.58 6.9L5.97 6.46L5.35 6.9L5.58 6.17L4.97 5.71L5.75 5.71L5.97 5Z" fill="#FFFFFF" fill-opacity="1.000000" fill-rule="nonzero"/>
		<path id="Vector" d="M9.97 5L10.21 5.71L10.98 5.71L10.36 6.17L10.59 6.9L9.97 6.46L9.35 6.9L9.58 6.17L8.97 5.71L9.75 5.71L9.97 5Z" fill="#FFFFFF" fill-opacity="1.000000" fill-rule="nonzero"/>
		<path id="Vector" d="M0 8L25 8L25 10L0 10L0 8Z" fill="#CB001C" fill-opacity="1.000000" fill-rule="evenodd"/>
		<path id="Vector" d="M0 12L25 12L25 14L0 14L0 12Z" fill="#CB001C" fill-opacity="1.000000" fill-rule="evenodd"/>
		<path id="Vector" d="M0 16L25 16L25 18L0 18L0 16Z" fill="#CB001C" fill-opacity="1.000000" fill-rule="evenodd"/>
	</g>
</svg>
