<svg width="237.000000" height="42.000000" viewBox="0 0 237 42" fill="none" xmlns="http://www.w3.org/2000/svg" xmlns:xlink="http://www.w3.org/1999/xlink">
	<desc>
			Created with Pixso.
	</desc>
	<defs>
		<clipPath id="clip23_27763">
			<rect id="logo_guru_ru.svg" width="237.000000" height="41.636257" transform="translate(0.000000 0.181885)" fill="white" fill-opacity="0"/>
		</clipPath>
		<clipPath id="clip23_27762">
			<rect id="logo_guru_ru.svg fill" width="237.000000" height="42.000000" fill="white" fill-opacity="0"/>
		</clipPath>
		<clipPath id="clip23_27761">
			<rect id="Link → logo_guru_ru.svg" width="237.000000" height="42.000000" fill="white" fill-opacity="0"/>
		</clipPath>
	</defs>
	<g clip-path="url(#clip23_27761)">
		<g clip-path="url(#clip23_27762)">
			<g clip-path="url(#clip23_27763)">
				<path id="Vector" d="M46.8 14.96L44.76 14.96L44.76 23.16L41.47 23.16L41.47 0.56L47.32 0.56C51.64 0.56 54.1 3.14 54.1 7.62C54.1 11.15 52.61 13.57 50.03 14.51L54.94 23.16L51.35 23.16L46.8 14.96ZM44.76 11.86L47.28 11.86C49.58 11.86 50.77 10.37 50.77 7.69C50.77 5 49.58 3.66 47.32 3.66L44.76 3.66L44.76 11.86Z" fill="#2B2B2B" fill-opacity="1.000000" fill-rule="nonzero"/>
				<path id="Vector" d="M68.83 17.83C68.53 21.45 66.31 23.51 62.62 23.51C58.94 23.51 56.84 21.19 56.84 17.12L56.84 12.05C56.84 8.01 59.07 5.73 62.7 5.73C66.33 5.73 68.64 8.02 68.64 12.06L68.64 15.88L59.98 15.88L59.98 17.17C59.98 19.49 60.97 20.54 62.74 20.54C64.65 20.54 65.46 19.7 65.74 17.86L68.83 17.83ZM59.98 12.02L59.98 13.47L65.51 13.47L65.51 12.02C65.51 9.69 64.48 8.66 62.74 8.66C61.01 8.66 59.98 9.69 59.98 12.02Z" fill="#2B2B2B" fill-opacity="1.000000" fill-rule="nonzero"/>
				<path id="Vector" d="M70.83 17.93L73.93 17.93C73.91 18.28 73.96 18.62 74.08 18.95C74.19 19.27 74.37 19.57 74.6 19.83C74.83 20.09 75.11 20.3 75.42 20.45C75.74 20.6 76.08 20.68 76.42 20.7C76.57 20.71 76.72 20.71 76.86 20.7C78.52 20.7 79.45 19.9 79.45 18.57C79.45 15.14 71.09 16.31 71.09 10.49C71.09 7.58 73.25 5.73 76.54 5.73C80.16 5.73 82.08 7.99 82.19 11.16L79.16 11.16C79.23 10.54 79.05 9.92 78.66 9.43C78.26 8.94 77.7 8.63 77.08 8.56C76.9 8.55 76.72 8.55 76.54 8.56C75.05 8.56 74.15 9.3 74.15 10.5C74.15 13.73 82.55 12.47 82.55 18.58C82.55 21.58 80.42 23.58 76.89 23.58C73.05 23.58 70.86 21.06 70.83 17.93Z" fill="#2B2B2B" fill-opacity="1.000000" fill-rule="nonzero"/>
				<path id="Vector" d="M92.82 20.41L92.82 23.36L91.63 23.36C88.23 23.36 86.23 21.19 86.23 17.67L86.23 8.98L83.84 8.98L83.84 6.14L86.23 6.14L86.23 2.1L89.33 2.1L89.33 6.14L92.5 6.14L92.5 8.98L89.33 8.98L89.33 17.73C89.33 19.57 90.11 20.44 91.78 20.44L92.82 20.41Z" fill="#2B2B2B" fill-opacity="1.000000" fill-rule="nonzero"/>
				<path id="Vector" d="M106.42 11.86L106.42 23.16L103.86 23.16L103.64 21.58C103.25 22.22 102.69 22.75 102.03 23.1C101.36 23.45 100.61 23.62 99.86 23.58C98.55 23.66 97.27 23.22 96.29 22.35C95.31 21.49 94.71 20.27 94.63 18.97C94.61 18.76 94.61 18.55 94.63 18.35C94.63 14.86 97.05 13.08 100.8 13.08L103.3 13.08L103.3 11.86C103.3 9.86 102.56 8.72 100.85 8.72C100.53 8.7 100.22 8.73 99.92 8.83C99.62 8.92 99.34 9.08 99.1 9.28C98.86 9.48 98.67 9.73 98.53 10.01C98.38 10.29 98.3 10.6 98.27 10.91C98.27 10.93 98.27 10.96 98.27 10.98L95.14 10.98C95.3 7.73 97.5 5.72 100.92 5.72C104.55 5.73 106.42 7.95 106.42 11.86ZM103.3 15.76L100.82 15.76C98.91 15.76 97.81 16.64 97.81 18.32C97.81 20 98.82 20.8 100.52 20.8C100.86 20.83 101.2 20.79 101.52 20.68C101.84 20.58 102.14 20.41 102.4 20.19C102.66 19.97 102.87 19.7 103.02 19.4C103.17 19.1 103.27 18.77 103.29 18.43C103.3 18.32 103.3 18.2 103.29 18.09L103.3 15.76Z" fill="#2B2B2B" fill-opacity="1.000000" fill-rule="nonzero"/>
				<path id="Vector" d="M121.56 6.14L121.56 23.16L119.34 23.16L118.99 21.25C118.57 21.99 117.95 22.6 117.2 23.01C116.45 23.43 115.61 23.62 114.75 23.58C111.82 23.58 109.97 21.48 109.97 16.83L109.97 6.14L113.11 6.14L113.11 16.67C113.11 19.44 113.85 20.61 115.5 20.61C117.15 20.61 118.41 19.19 118.41 16.67L118.41 6.14L121.56 6.14Z" fill="#2B2B2B" fill-opacity="1.000000" fill-rule="nonzero"/>
				<path id="Vector" d="M134.03 6.01L134.03 9.11C133.36 8.83 132.64 8.7 131.91 8.72C129.78 8.72 128.42 10.11 128.42 12.66L128.42 23.16L125.28 23.16L125.28 6.14L127.52 6.14L127.87 8.11C128.53 7.14 129.49 6.41 130.6 6.03C131.71 5.65 132.91 5.64 134.03 6.01Z" fill="#2B2B2B" fill-opacity="1.000000" fill-rule="nonzero"/>
				<path id="Vector" d="M147.08 11.86L147.08 23.16L144.53 23.16L144.3 21.58C143.91 22.22 143.36 22.75 142.69 23.1C142.03 23.45 141.28 23.62 140.53 23.58C139.22 23.66 137.94 23.22 136.96 22.36C135.98 21.49 135.38 20.27 135.29 18.97C135.28 18.75 135.28 18.54 135.29 18.33C135.29 14.84 137.71 13.06 141.46 13.06L143.95 13.06L143.95 11.86C143.95 9.86 143.2 8.72 141.5 8.72C140.87 8.67 140.24 8.87 139.76 9.27C139.28 9.68 138.98 10.26 138.92 10.89C138.92 10.92 138.92 10.95 138.92 10.98L135.78 10.98C135.95 7.73 138.15 5.72 141.57 5.72C145.21 5.73 147.08 7.95 147.08 11.86ZM143.95 15.76L141.46 15.76C139.56 15.76 138.46 16.64 138.46 18.32C138.46 20 139.46 20.8 141.17 20.8C141.86 20.85 142.53 20.63 143.05 20.18C143.57 19.73 143.89 19.1 143.94 18.41C143.94 18.3 143.94 18.2 143.94 18.09L143.95 15.76Z" fill="#2B2B2B" fill-opacity="1.000000" fill-rule="nonzero"/>
				<path id="Vector" d="M162.36 12.47L162.36 23.16L159.23 23.16L159.23 12.63C159.23 9.87 158.48 8.69 156.84 8.69C155.06 8.69 153.94 10.12 153.94 12.63L153.94 23.16L150.8 23.16L150.8 6.14L153.03 6.14L153.35 8.05C153.78 7.31 154.4 6.7 155.15 6.29C155.9 5.88 156.75 5.69 157.61 5.73C160.51 5.73 162.36 7.82 162.36 12.47Z" fill="#2B2B2B" fill-opacity="1.000000" fill-rule="nonzero"/>
				<path id="Vector" d="M173.5 20.41L173.5 23.36L172.31 23.36C168.91 23.36 166.91 21.19 166.91 17.67L166.91 8.98L164.52 8.98L164.52 6.14L166.91 6.14L166.91 2.1L170.01 2.1L170.01 6.14L173.18 6.14L173.18 8.98L170.01 8.98L170.01 17.73C170.01 19.57 170.79 20.44 172.46 20.44L173.5 20.41Z" fill="#2B2B2B" fill-opacity="1.000000" fill-rule="nonzero"/>
				<path id="Vector" d="M182.86 16.45L182.86 7.22C182.86 2.6 185.38 0.18 189.49 0.18C193.6 0.18 195.95 2.6 196.08 7.06L192.81 7.06C192.68 4.44 191.52 3.31 189.45 3.31C187.39 3.31 186.16 4.5 186.16 7.25L186.16 16.43C186.16 19.2 187.45 20.37 189.55 20.37C191.64 20.37 193.01 19.17 193.01 16.58L193.01 13.76L189.42 13.76L189.42 10.85L196.2 10.85L196.2 16.6C196.13 21.03 193.59 23.51 189.52 23.51C185.45 23.51 182.86 21.03 182.86 16.45Z" fill="#2B2B2B" fill-opacity="1.000000" fill-rule="nonzero"/>
				<path id="Vector" d="M210.87 6.14L210.87 23.16L208.64 23.16L208.32 21.25C207.89 21.99 207.28 22.6 206.53 23.01C205.78 23.42 204.94 23.62 204.09 23.58C201.12 23.58 199.27 21.48 199.27 16.81L199.27 6.14L202.4 6.14L202.4 16.67C202.4 19.44 203.15 20.61 204.79 20.61C206.43 20.61 207.7 19.19 207.7 16.67L207.7 6.14L210.87 6.14Z" fill="#2B2B2B" fill-opacity="1.000000" fill-rule="nonzero"/>
				<path id="Vector" d="M223.34 6.01L223.34 9.11C222.67 8.83 221.96 8.7 221.23 8.72C219.1 8.72 217.75 10.11 217.75 12.66L217.75 23.16L214.62 23.16L214.62 6.14L216.81 6.14L217.16 8.11C217.6 7.35 218.25 6.72 219.02 6.3C219.8 5.88 220.68 5.68 221.56 5.73C222.16 5.71 222.77 5.81 223.34 6.01Z" fill="#2B2B2B" fill-opacity="1.000000" fill-rule="nonzero"/>
				<path id="Vector" d="M237 6.14L237 23.16L234.77 23.16L234.45 21.25C234.03 21.99 233.41 22.6 232.66 23.01C231.91 23.43 231.06 23.62 230.21 23.58C227.28 23.58 225.43 21.48 225.43 16.83L225.43 6.14L228.57 6.14L228.57 16.67C228.57 19.44 229.31 20.61 230.96 20.61C232.61 20.61 233.87 19.19 233.87 16.67L233.87 6.14L237 6.14Z" fill="#2B2B2B" fill-opacity="1.000000" fill-rule="nonzero"/>
				<path id="Vector" d="M49.48 29.41L49.48 38.95L48.67 38.95L48.67 30.09L44.65 30.09L44.43 34.03C44.39 35.06 44.26 36.09 44.03 37.11C43.91 37.63 43.64 38.12 43.26 38.49C42.87 38.8 42.39 38.95 41.9 38.93L41.57 38.93L41.57 38.26L41.83 38.26C42.01 38.27 42.2 38.23 42.38 38.16C42.55 38.08 42.71 37.97 42.84 37.84C43.11 37.46 43.29 37.02 43.37 36.56C43.53 35.67 43.62 34.76 43.65 33.85L43.89 29.43L49.48 29.41Z" fill="#2B2B2B" fill-opacity="1.000000" fill-rule="nonzero"/>
				<path id="Vector" d="M53.96 37.8L56.02 31.86L56.87 31.86L53.85 40.16L53.69 40.53C53.51 41 53.16 41.39 52.71 41.61C52.25 41.84 51.73 41.87 51.25 41.72L51.25 41.08L51.65 41.12C51.98 41.11 52.29 41 52.55 40.8C52.83 40.55 53.05 40.23 53.18 39.88L53.53 38.95L50.86 31.94L51.72 31.94L53.96 37.8Z" fill="#2B2B2B" fill-opacity="1.000000" fill-rule="nonzero"/>
				<path id="Vector" d="M63.1 38.95L62.32 38.95L62.32 35.95C61.73 36.18 61.11 36.3 60.47 36.31C59.74 36.38 59.01 36.16 58.44 35.7C57.97 35.16 57.73 34.47 57.77 33.77L57.77 31.86L58.55 31.86L58.55 33.7C58.5 34.24 58.67 34.77 59.01 35.19C59.21 35.36 59.45 35.48 59.7 35.56C59.95 35.63 60.22 35.66 60.48 35.63C61.11 35.61 61.74 35.5 62.33 35.29L62.33 31.86L63.11 31.86L63.1 38.95Z" fill="#2B2B2B" fill-opacity="1.000000" fill-rule="nonzero"/>
				<path id="Vector" d="M66.03 31.86L66.03 38.26L69.16 38.26L69.16 31.86L69.93 31.86L69.93 38.26L73.05 38.26L73.05 31.86L73.84 31.86L73.84 38.95L65.25 38.95L65.25 31.86L66.03 31.86Z" fill="#2B2B2B" fill-opacity="1.000000" fill-rule="nonzero"/>
				<path id="Vector" d="M80.45 31.86L81.24 31.86L81.24 38.95L80.45 38.95L80.45 33.12L76.64 38.95L75.87 38.95L75.87 31.86L76.64 31.86L76.64 37.67L80.45 31.86Z" fill="#2B2B2B" fill-opacity="1.000000" fill-rule="nonzero"/>
				<path id="Vector" d="M86.06 39.05C85.49 39.06 84.93 38.91 84.44 38.61C83.95 38.32 83.56 37.89 83.3 37.37C83.03 36.82 82.89 36.21 82.9 35.59L82.9 35.31C82.89 34.67 83.02 34.04 83.3 33.46C83.53 32.94 83.91 32.5 84.39 32.18C84.85 31.88 85.38 31.72 85.92 31.72C86.31 31.7 86.7 31.78 87.05 31.94C87.41 32.1 87.72 32.34 87.96 32.64C88.5 33.32 88.77 34.17 88.72 35.04L88.72 35.48L83.67 35.48L83.67 35.63C83.65 36.36 83.89 37.07 84.37 37.63C84.58 37.89 84.84 38.09 85.14 38.23C85.44 38.37 85.77 38.44 86.1 38.44C86.48 38.44 86.86 38.36 87.21 38.2C87.57 38.04 87.89 37.78 88.13 37.47L88.62 37.84C88.33 38.25 87.95 38.57 87.5 38.79C87.05 39 86.56 39.09 86.06 39.05ZM85.92 32.39C85.65 32.39 85.37 32.44 85.11 32.55C84.86 32.66 84.63 32.83 84.44 33.04C84.01 33.52 83.76 34.13 83.7 34.77L87.95 34.77L87.95 34.69C87.95 34.09 87.74 33.5 87.36 33.03C87.19 32.82 86.96 32.66 86.72 32.55C86.47 32.44 86.2 32.38 85.92 32.39Z" fill="#2B2B2B" fill-opacity="1.000000" fill-rule="nonzero"/>
				<path id="Vector" d="M99.18 35.46C99.23 36.39 98.98 37.32 98.45 38.08C98.22 38.38 97.92 38.62 97.58 38.79C97.24 38.95 96.87 39.02 96.49 39.01C96.07 39.03 95.64 38.95 95.25 38.77C94.87 38.6 94.53 38.33 94.27 37.99L94.27 41.59L93.49 41.59L93.49 31.86L94.21 31.86L94.21 32.85C94.45 32.49 94.78 32.19 95.17 32C95.56 31.8 95.99 31.71 96.43 31.73C96.81 31.71 97.19 31.78 97.53 31.94C97.88 32.1 98.18 32.35 98.41 32.65C98.93 33.44 99.19 34.37 99.13 35.32L99.18 35.46ZM98.39 35.33C98.43 34.57 98.24 33.83 97.84 33.18C97.66 32.94 97.43 32.74 97.16 32.6C96.89 32.46 96.59 32.39 96.29 32.4C95.85 32.39 95.42 32.51 95.06 32.75C94.7 33 94.42 33.35 94.27 33.76L94.27 37.11C94.43 37.49 94.71 37.81 95.07 38.03C95.44 38.25 95.87 38.36 96.31 38.35C96.61 38.36 96.91 38.3 97.18 38.16C97.45 38.02 97.68 37.81 97.85 37.56C98.25 36.89 98.44 36.11 98.39 35.33Z" fill="#2B2B2B" fill-opacity="1.000000" fill-rule="nonzero"/>
				<path id="Vector" d="M103.65 39.05C103.08 39.06 102.51 38.91 102.02 38.61C101.53 38.32 101.14 37.89 100.88 37.37C100.61 36.82 100.47 36.21 100.48 35.59L100.48 35.31C100.47 34.67 100.61 34.04 100.87 33.46C101.12 32.94 101.51 32.5 101.98 32.18C102.43 31.88 102.96 31.72 103.5 31.72C103.89 31.7 104.28 31.78 104.63 31.94C104.99 32.1 105.3 32.34 105.54 32.64C106.08 33.32 106.35 34.17 106.3 35.04L106.3 35.48L101.26 35.48L101.26 35.63C101.23 36.36 101.48 37.07 101.95 37.63C102.16 37.89 102.42 38.09 102.72 38.23C103.02 38.37 103.35 38.44 103.68 38.44C104.06 38.44 104.44 38.36 104.79 38.2C105.15 38.04 105.47 37.78 105.71 37.47L106.2 37.84C105.92 38.25 105.53 38.57 105.09 38.79C104.64 39 104.15 39.09 103.65 39.05ZM103.5 32.39C103.23 32.39 102.95 32.44 102.69 32.55C102.44 32.66 102.21 32.83 102.02 33.04C101.59 33.52 101.34 34.13 101.28 34.77L105.53 34.77L105.53 34.69C105.53 34.08 105.33 33.5 104.94 33.03C104.77 32.82 104.54 32.66 104.3 32.55C104.05 32.44 103.78 32.38 103.5 32.39Z" fill="#2B2B2B" fill-opacity="1.000000" fill-rule="nonzero"/>
				<path id="Vector" d="M110.43 38.4C110.93 38.42 111.42 38.25 111.81 37.94C111.99 37.79 112.13 37.61 112.23 37.4C112.34 37.2 112.39 36.97 112.4 36.74L113.16 36.74C113.14 37.16 113 37.57 112.75 37.92C112.5 38.28 112.16 38.57 111.76 38.76C111.35 38.95 110.89 39.05 110.43 39.05C110.02 39.08 109.61 39 109.23 38.84C108.85 38.68 108.5 38.44 108.23 38.13C107.66 37.39 107.37 36.47 107.42 35.54L107.42 35.26C107.4 34.63 107.53 34 107.79 33.42C108 32.9 108.37 32.46 108.84 32.16C109.32 31.87 109.87 31.72 110.43 31.73C111.14 31.7 111.82 31.95 112.35 32.42C112.6 32.65 112.8 32.94 112.94 33.26C113.08 33.58 113.16 33.92 113.16 34.27L112.4 34.27C112.4 34.01 112.34 33.77 112.24 33.54C112.14 33.31 111.99 33.1 111.81 32.93C111.6 32.75 111.35 32.61 111.08 32.52C110.82 32.43 110.54 32.4 110.26 32.42C109.98 32.45 109.7 32.52 109.45 32.65C109.21 32.78 108.98 32.95 108.8 33.17C108.37 33.79 108.16 34.55 108.21 35.31L108.21 35.54C108.17 36.3 108.39 37.05 108.84 37.66C109.03 37.9 109.27 38.09 109.55 38.22C109.83 38.35 110.13 38.41 110.43 38.4Z" fill="#2B2B2B" fill-opacity="1.000000" fill-rule="nonzero"/>
				<path id="Vector" d="M119.79 32.49L117.22 32.49L117.22 38.95L116.43 38.95L116.43 32.49L113.96 32.49L113.96 31.83L119.79 31.83L119.79 32.49Z" fill="#2B2B2B" fill-opacity="1.000000" fill-rule="nonzero"/>
				<path id="Vector" d="M120.64 35.26C120.63 34.62 120.77 33.99 121.04 33.42C121.28 32.9 121.67 32.46 122.15 32.14C122.65 31.84 123.22 31.68 123.8 31.69C124.23 31.68 124.65 31.76 125.05 31.93C125.44 32.1 125.79 32.35 126.08 32.68C126.69 33.41 127 34.35 126.95 35.3L126.95 35.46C126.97 36.1 126.83 36.73 126.56 37.31C126.32 37.83 125.93 38.27 125.45 38.57C124.95 38.87 124.38 39.02 123.81 39.02C123.38 39.03 122.95 38.95 122.55 38.78C122.16 38.61 121.8 38.35 121.52 38.03C120.89 37.3 120.56 36.37 120.59 35.41L120.64 35.26ZM121.43 35.47C121.4 36.22 121.63 36.95 122.08 37.55C122.26 37.78 122.49 37.96 122.75 38.1C123 38.24 123.28 38.33 123.57 38.36C123.86 38.39 124.16 38.36 124.43 38.28C124.71 38.19 124.97 38.06 125.2 37.87C125.32 37.78 125.43 37.67 125.52 37.55C125.98 36.93 126.21 36.18 126.18 35.41L126.18 35.26C126.19 34.75 126.08 34.24 125.87 33.78C125.7 33.35 125.41 32.99 125.03 32.73C124.67 32.48 124.24 32.35 123.8 32.36C123.47 32.36 123.14 32.43 122.84 32.57C122.55 32.71 122.29 32.92 122.09 33.19C121.63 33.8 121.39 34.56 121.43 35.33L121.43 35.47Z" fill="#2B2B2B" fill-opacity="1.000000" fill-rule="nonzero"/>
				<path id="Vector" d="M134.25 35.46C134.31 36.4 134.05 37.32 133.52 38.09C133.29 38.39 133 38.63 132.65 38.79C132.31 38.95 131.94 39.03 131.56 39.01C131.13 39.03 130.71 38.95 130.33 38.77C129.94 38.6 129.6 38.33 129.34 37.99L129.34 41.59L128.56 41.59L128.56 31.86L129.29 31.86L129.29 32.85C129.53 32.49 129.86 32.19 130.25 32C130.63 31.8 131.07 31.71 131.5 31.73C131.88 31.71 132.27 31.78 132.61 31.94C132.96 32.1 133.26 32.34 133.5 32.65C134.02 33.44 134.27 34.37 134.22 35.32L134.25 35.46ZM133.47 35.33C133.51 34.57 133.31 33.83 132.91 33.19C132.74 32.94 132.51 32.74 132.24 32.6C131.97 32.46 131.67 32.39 131.36 32.4C130.92 32.39 130.5 32.51 130.13 32.75C129.77 33 129.49 33.35 129.34 33.76L129.34 37.11C129.51 37.49 129.79 37.81 130.14 38.03C130.52 38.25 130.94 38.36 131.37 38.35C131.68 38.36 131.98 38.3 132.25 38.16C132.52 38.02 132.75 37.81 132.91 37.56C133.32 36.89 133.51 36.11 133.47 35.33Z" fill="#2B2B2B" fill-opacity="1.000000" fill-rule="nonzero"/>
				<path id="Vector" d="M140.44 38.95C140.35 38.63 140.3 38.3 140.3 37.97C140.02 38.32 139.66 38.61 139.24 38.8C138.82 38.99 138.36 39.08 137.9 39.08C137.29 39.11 136.7 38.91 136.25 38.51C136.04 38.34 135.88 38.12 135.77 37.88C135.66 37.64 135.6 37.37 135.6 37.11C135.59 36.77 135.67 36.44 135.83 36.15C135.99 35.86 136.23 35.61 136.52 35.45C137.24 35 138.08 34.79 138.92 34.85L140.33 34.85L140.33 34.04C140.34 33.82 140.31 33.6 140.23 33.4C140.15 33.19 140.03 33 139.87 32.84C139.49 32.53 139 32.37 138.51 32.41C138.02 32.39 137.54 32.54 137.15 32.83C136.99 32.95 136.85 33.1 136.76 33.27C136.67 33.45 136.62 33.64 136.61 33.84L135.83 33.84C135.84 33.55 135.91 33.27 136.05 33.02C136.19 32.77 136.38 32.55 136.61 32.38C137.17 31.96 137.85 31.74 138.54 31.76C139.21 31.73 139.86 31.94 140.39 32.35C140.62 32.56 140.8 32.82 140.93 33.1C141.05 33.39 141.1 33.7 141.09 34.01L141.09 37.35C141.06 37.87 141.14 38.39 141.31 38.88L141.31 38.95L140.44 38.95ZM137.99 38.39C138.48 38.4 138.97 38.27 139.39 38.01C139.8 37.78 140.12 37.42 140.31 37L140.31 35.42L138.92 35.42C138.28 35.39 137.64 35.54 137.08 35.84C136.9 35.95 136.74 36.1 136.63 36.27C136.52 36.45 136.45 36.65 136.43 36.85C136.41 37.06 136.44 37.27 136.51 37.47C136.59 37.66 136.71 37.83 136.86 37.97C137.18 38.24 137.58 38.38 137.99 38.36L137.99 38.39Z" fill="#2B2B2B" fill-opacity="1.000000" fill-rule="nonzero"/>
				<path id="Vector" d="M148.58 38.95L147.8 38.95L147.8 35.69L143.99 35.69L143.99 38.95L143.2 38.95L143.2 31.86L143.99 31.86L143.99 35.02L147.8 35.02L147.8 31.86L148.58 31.86L148.58 38.95Z" fill="#2B2B2B" fill-opacity="1.000000" fill-rule="nonzero"/>
				<path id="Vector" d="M151.54 34.42L153.58 34.42C154.05 34.41 154.52 34.51 154.95 34.71C155.33 34.87 155.65 35.14 155.87 35.49C156.08 35.85 156.18 36.25 156.18 36.66C156.19 36.97 156.13 37.28 156 37.56C155.88 37.85 155.7 38.1 155.47 38.31C154.93 38.74 154.26 38.96 153.58 38.93L150.81 38.93L150.81 31.86L151.59 31.86L151.54 34.42ZM151.54 35.09L151.54 38.26L153.56 38.26C154.04 38.29 154.51 38.14 154.89 37.84C155.04 37.69 155.16 37.51 155.24 37.31C155.32 37.11 155.36 36.9 155.36 36.69C155.36 36.47 155.32 36.26 155.24 36.07C155.16 35.87 155.04 35.69 154.89 35.54C154.53 35.23 154.08 35.07 153.61 35.09L151.54 35.09ZM158.54 38.95L157.75 38.95L157.75 31.86L158.53 31.86L158.54 38.95Z" fill="#2B2B2B" fill-opacity="1.000000" fill-rule="nonzero"/>
				<path id="Vector" d="M167.9 37.86L170.67 31.86L171.63 31.86L171.63 38.95L170.85 38.95L170.85 33.12L168.16 38.95L167.6 38.95L164.83 33.02L164.83 38.95L164.06 38.95L164.06 31.86L165.13 31.86L167.9 37.86Z" fill="#2B2B2B" fill-opacity="1.000000" fill-rule="nonzero"/>
				<path id="Vector" d="M178.4 31.86L179.18 31.86L179.18 38.95L178.4 38.95L178.4 33.12L174.59 38.95L173.8 38.95L173.8 31.86L174.59 31.86L174.59 37.67L178.4 31.86Z" fill="#2B2B2B" fill-opacity="1.000000" fill-rule="nonzero"/>
				<path id="Vector" d="M186.96 35.46C187.01 36.39 186.75 37.32 186.22 38.08C186 38.39 185.7 38.63 185.36 38.79C185.02 38.95 184.64 39.02 184.27 39.01C183.84 39.03 183.42 38.95 183.03 38.77C182.64 38.6 182.3 38.33 182.04 37.99L182.04 41.59L181.27 41.59L181.27 31.86L181.99 31.86L181.99 32.85C182.23 32.49 182.56 32.19 182.95 32C183.33 31.8 183.77 31.71 184.2 31.73C184.58 31.71 184.96 31.78 185.31 31.94C185.65 32.1 185.96 32.35 186.19 32.65C186.71 33.44 186.97 34.37 186.92 35.32L186.96 35.46ZM186.18 35.33C186.22 34.57 186.02 33.82 185.61 33.18C185.44 32.94 185.21 32.74 184.94 32.6C184.67 32.46 184.38 32.4 184.07 32.4C183.64 32.38 183.2 32.51 182.84 32.75C182.47 32.99 182.2 33.35 182.04 33.76L182.04 37.11C182.21 37.49 182.49 37.81 182.85 38.03C183.22 38.25 183.65 38.36 184.08 38.35C184.39 38.36 184.69 38.3 184.96 38.16C185.23 38.02 185.46 37.81 185.62 37.56C186.03 36.89 186.22 36.11 186.18 35.33Z" fill="#2B2B2B" fill-opacity="1.000000" fill-rule="nonzero"/>
				<path id="Vector" d="M193.15 38.95C193.06 38.63 193.01 38.3 193 37.97C192.73 38.33 192.37 38.61 191.95 38.8C191.53 38.99 191.07 39.08 190.61 39.08C190 39.11 189.41 38.91 188.96 38.51C188.75 38.33 188.59 38.11 188.48 37.86C188.37 37.62 188.32 37.35 188.33 37.08C188.31 36.76 188.39 36.43 188.54 36.15C188.69 35.86 188.91 35.62 189.19 35.45C189.9 35 190.74 34.79 191.58 34.85L193 34.85L193 34.04C193.01 33.82 192.97 33.6 192.89 33.39C192.81 33.18 192.69 33 192.53 32.84C192.15 32.53 191.66 32.38 191.17 32.41C190.68 32.39 190.2 32.54 189.81 32.83C189.65 32.95 189.51 33.1 189.42 33.27C189.33 33.45 189.28 33.64 189.28 33.84L188.49 33.84C188.5 33.55 188.58 33.27 188.71 33.02C188.85 32.77 189.04 32.55 189.28 32.38C189.83 31.96 190.51 31.74 191.21 31.76C191.87 31.73 192.53 31.94 193.05 32.35C193.28 32.56 193.45 32.81 193.57 33.09C193.69 33.37 193.74 33.67 193.74 33.97L193.74 37.31C193.71 37.83 193.78 38.35 193.95 38.84L193.95 38.95L193.15 38.95ZM190.7 38.39C191.19 38.39 191.67 38.26 192.09 38.01C192.5 37.78 192.82 37.42 193.02 37L193.02 35.42L191.61 35.42C190.97 35.39 190.33 35.54 189.77 35.84C189.46 36.02 189.24 36.3 189.15 36.64C189.06 36.98 189.1 37.34 189.28 37.64C189.35 37.77 189.44 37.88 189.55 37.97C189.87 38.24 190.28 38.38 190.7 38.36L190.7 38.39Z" fill="#2B2B2B" fill-opacity="1.000000" fill-rule="nonzero"/>
				<path id="Vector" d="M204.81 35.46C204.86 36.39 204.61 37.32 204.08 38.08C203.85 38.38 203.55 38.62 203.21 38.79C202.87 38.95 202.5 39.02 202.12 39.01C201.7 39.03 201.27 38.95 200.89 38.77C200.5 38.6 200.16 38.33 199.9 37.99L199.9 41.59L199.12 41.59L199.12 31.86L199.84 31.86L199.84 32.85C200.08 32.49 200.41 32.19 200.8 32C201.19 31.8 201.62 31.71 202.06 31.73C202.44 31.71 202.82 31.78 203.17 31.94C203.51 32.1 203.81 32.35 204.04 32.65C204.59 33.44 204.86 34.39 204.81 35.35L204.81 35.46ZM204.02 35.33C204.06 34.57 203.87 33.83 203.47 33.18C203.3 32.94 203.06 32.74 202.79 32.6C202.52 32.46 202.22 32.39 201.92 32.4C201.48 32.39 201.05 32.51 200.69 32.75C200.33 33 200.05 33.35 199.9 33.76L199.9 37.11C200.07 37.49 200.35 37.81 200.7 38.03C201.08 38.25 201.5 38.36 201.94 38.35C202.24 38.36 202.54 38.3 202.81 38.16C203.08 38.02 203.31 37.81 203.48 37.56C203.87 36.88 204.06 36.11 204.01 35.33L204.02 35.33Z" fill="#2B2B2B" fill-opacity="1.000000" fill-rule="nonzero"/>
				<path id="Vector" d="M211.68 31.86L211.68 38.95L210.9 38.95L210.9 36.07L208.7 36.07L206.98 38.95L206.11 38.95L207.89 36.01C207.44 35.9 207.04 35.64 206.76 35.27C206.49 34.9 206.35 34.45 206.36 34C206.35 33.7 206.41 33.41 206.53 33.15C206.65 32.88 206.83 32.64 207.05 32.46C207.58 32.06 208.23 31.86 208.9 31.88L211.68 31.86ZM207.14 33.98C207.14 34.17 207.17 34.35 207.24 34.53C207.31 34.7 207.41 34.86 207.54 34.99C207.69 35.13 207.86 35.24 208.05 35.31C208.24 35.38 208.44 35.42 208.64 35.41L210.9 35.41L210.9 32.49L208.9 32.49C208.43 32.47 207.98 32.61 207.61 32.89C207.45 33.02 207.33 33.19 207.25 33.38C207.17 33.57 207.13 33.77 207.14 33.98Z" fill="#2B2B2B" fill-opacity="1.000000" fill-rule="nonzero"/>
				<path id="Vector" d="M213.63 38.26L213.97 37.82C214.58 36.84 214.9 35.71 214.89 34.55L215.01 31.86L219.19 31.86L219.19 38.26L219.92 38.26L219.92 41.03L219.15 41.03L219.15 38.95L213.83 38.95L213.83 41.03L213.11 41.03L213.11 38.26L213.63 38.26ZM214.55 38.26L218.47 38.26L218.47 32.59L215.79 32.59L215.71 34.43C215.73 35.8 215.32 37.14 214.53 38.26L214.55 38.26Z" fill="#2B2B2B" fill-opacity="1.000000" fill-rule="nonzero"/>
				<path id="Vector" d="M221.03 35.26C221.02 34.62 221.15 33.99 221.43 33.42C221.67 32.89 222.06 32.45 222.55 32.14C223.05 31.83 223.62 31.68 224.2 31.69C224.63 31.67 225.06 31.75 225.45 31.92C225.85 32.1 226.2 32.35 226.49 32.68C227.09 33.41 227.41 34.35 227.36 35.3L227.36 35.47C227.37 36.1 227.23 36.73 226.96 37.31C226.72 37.83 226.34 38.27 225.85 38.58C225.35 38.87 224.78 39.03 224.21 39.02C223.77 39.03 223.34 38.95 222.95 38.78C222.55 38.61 222.19 38.35 221.91 38.03C221.3 37.3 220.99 36.36 221.03 35.41L221.03 35.26ZM221.82 35.47C221.79 36.22 222.02 36.96 222.47 37.55C222.84 38.01 223.37 38.3 223.95 38.36C224.53 38.42 225.12 38.25 225.57 37.88C225.69 37.78 225.8 37.67 225.9 37.55C226.36 36.93 226.6 36.18 226.56 35.41L226.56 35.26C226.57 34.75 226.47 34.25 226.26 33.78C226.09 33.36 225.8 33 225.42 32.73C224.96 32.43 224.41 32.31 223.86 32.39C223.31 32.47 222.82 32.76 222.47 33.19C222.01 33.8 221.78 34.56 221.82 35.33L221.82 35.47Z" fill="#2B2B2B" fill-opacity="1.000000" fill-rule="nonzero"/>
				<path id="Vector" d="M232.87 37.86L235.64 31.86L236.56 31.86L236.56 38.95L235.78 38.95L235.78 33.12L233.01 38.93L232.49 38.93L229.72 32.99L229.72 38.95L228.95 38.95L228.95 31.86L229.97 31.86L232.87 37.86Z" fill="#2B2B2B" fill-opacity="1.000000" fill-rule="nonzero"/>
				<path id="Vector" d="" fill="#2D3132" fill-opacity="1.000000" fill-rule="nonzero"/>
			</g>
		</g>
	</g>
	<path id="Vector" d="M18.55 8.53L18.55 4.99L19.17 5.98C20.18 7.46 21.21 8.92 22.24 10.41L22.63 10.99C22.74 11.15 22.91 11.25 23.09 11.3C23.28 11.35 23.47 11.33 23.64 11.25L27.98 9.72L32.78 8.09C33.22 7.89 33.71 7.78 34.2 7.77C34.6 7.77 35 7.87 35.36 8.05C35.72 8.23 36.04 8.5 36.28 8.83C36.69 9.34 36.91 9.98 36.92 10.64C36.92 11.42 36.64 12.17 36.14 12.77C35.61 13.43 35.11 14.13 34.6 14.72C34.1 15.3 33.42 16.31 32.78 17.1L30.46 20.27C30.37 20.37 30.29 20.48 30.23 20.61C30.15 20.77 30.12 20.96 30.15 21.15C30.19 21.33 30.28 21.5 30.43 21.62L31.42 22.95L33.11 25.13C33.59 25.73 34.06 26.36 34.53 26.96L36.04 28.91C36.41 29.33 36.69 29.81 36.88 30.34C36.86 30.56 36.9 30.79 37 31L37 31.19C36.97 31.71 36.82 32.2 36.55 32.64C36.25 33.16 35.8 33.57 35.24 33.81C34.69 34.05 34.08 34.09 33.5 33.94C32.66 33.73 31.88 33.4 31.09 33.12L26.01 31.35L24.07 30.65C23.87 30.55 23.65 30.51 23.43 30.55C23.21 30.59 23.01 30.7 22.86 30.86C22.65 31.11 22.46 31.38 22.3 31.66C21.68 32.56 21.04 33.46 20.36 34.35L17.38 38.8C17.13 39.31 16.76 39.74 16.29 40.07C15.98 40.26 15.64 40.4 15.28 40.5L14.27 40.5C13.95 40.41 13.63 40.28 13.34 40.11C13.02 39.9 12.74 39.63 12.53 39.32C12.31 39 12.17 38.65 12.1 38.27C12.03 37.98 12 37.69 12 37.39L12 17.19C11.97 16.24 12.17 15.3 12.58 14.44C12.93 13.69 13.55 13.1 14.31 12.79C14.48 12.7 14.64 12.58 14.76 12.42C14.88 12.27 14.97 12.1 15.01 11.91C15.17 11.5 15.26 11.06 15.28 10.62L15.28 2.51C15.26 2.3 15.3 2.1 15.4 1.92C15.5 1.74 15.65 1.59 15.83 1.5L16.45 1.5C16.7 1.63 16.95 1.73 17.03 2.06L17.03 10.64C17.05 11.62 16.78 12.58 16.26 13.41C15.96 13.86 15.54 14.23 15.05 14.46C14.75 14.63 14.48 14.86 14.27 15.14C14.06 15.42 13.92 15.74 13.84 16.08C13.74 16.5 13.7 16.92 13.71 17.35L13.71 37.43C13.71 37.58 13.75 37.72 13.81 37.86C13.87 37.99 13.96 38.11 14.07 38.21C14.18 38.31 14.3 38.38 14.44 38.43C14.58 38.48 14.73 38.5 14.87 38.49L15.13 38.49C15.4 38.35 15.62 38.13 15.75 37.86C15.94 37.59 16.12 37.3 16.29 37.02L17.34 35.52L20.65 30.65C21 30 21.5 29.45 22.11 29.03C22.72 28.67 23.45 28.55 24.15 28.7C24.96 28.93 25.76 29.2 26.54 29.52L31.32 31.17L33.96 32.09C34.11 32.14 34.27 32.14 34.42 32.1C34.57 32.05 34.7 31.96 34.8 31.84C34.91 31.72 34.99 31.57 35.02 31.42C35.06 31.26 35.06 31.1 35.01 30.94C34.86 30.59 34.64 30.27 34.37 30C33.42 28.74 32.43 27.49 31.47 26.22C30.52 24.95 29.98 24.27 29.18 23.24C28.85 22.88 28.6 22.46 28.44 22C28.29 21.54 28.24 21.05 28.29 20.57C28.33 20.17 28.46 19.79 28.68 19.45C29.18 18.71 29.74 18.01 30.29 17.29C30.83 16.57 31.77 15.34 32.5 14.33L34.82 11.25C34.88 11.18 34.93 11.1 34.96 11.01C34.99 10.92 35 10.83 34.99 10.74C34.99 10.49 34.9 10.24 34.72 10.06C34.55 9.88 34.31 9.77 34.06 9.76C33.95 9.74 33.84 9.74 33.73 9.76L31.01 10.74C29.06 11.46 26.95 12.16 24.92 12.9C24.26 13.2 23.53 13.3 22.81 13.2C22.15 13.12 21.54 12.8 21.11 12.3C20.36 11.26 19.66 10.19 18.92 9.14C18.83 8.92 18.7 8.72 18.55 8.53Z" fill="#2B2B2B" fill-opacity="1.000000" fill-rule="nonzero"/>
	<path id="Vector" d="M7.14 1.5C7.32 1.59 7.47 1.74 7.57 1.92C7.66 2.1 7.7 2.31 7.68 2.51L7.68 10.53C7.67 11.12 7.79 11.7 8.03 12.23C8.19 12.56 8.46 12.82 8.79 12.96C9.4 13.25 9.91 13.71 10.25 14.29C10.66 14.94 10.92 15.67 11 16.44C11 16.83 11 17.24 11 17.63L11 39.64C11 39.85 10.92 40.06 10.77 40.21C10.63 40.37 10.43 40.46 10.22 40.48C10.12 40.5 10.02 40.5 9.92 40.48C9.83 40.46 9.74 40.42 9.66 40.37C9.57 40.32 9.5 40.25 9.45 40.16C9.4 40.08 9.36 39.99 9.34 39.89C9.32 39.81 9.32 39.72 9.34 39.64L9.34 17.14C9.33 16.45 9.13 15.77 8.76 15.19C8.62 14.91 8.41 14.68 8.15 14.52C7.67 14.29 7.24 13.95 6.9 13.53C6.57 13.11 6.33 12.62 6.2 12.1C6.09 11.65 6.02 11.19 6.01 10.73L6.01 2.59C5.97 2.38 6.01 2.16 6.1 1.96C6.19 1.76 6.35 1.6 6.53 1.5L7.14 1.5Z" fill="#2B2B2B" fill-opacity="1.000000" fill-rule="nonzero"/>
	<path id="Vector" d="M7 23.22L7 25.35C7 25.51 7 25.51 6.83 25.47L3.91 24.46C3.21 24.24 2.5 24.06 1.82 23.8C1.36 23.65 0.94 23.36 0.62 22.97C0.29 22.58 0.08 22.09 0 21.57L0 20.32C0.08 19.96 0.22 19.63 0.4 19.32C0.77 18.73 1.33 18.3 1.97 18.13C2.75 17.89 3.52 17.61 4.29 17.35L6.98 16.5L6.98 18.49L5.26 19.06L2.52 19.96C2.3 20.02 2.11 20.18 2 20.39C1.88 20.6 1.85 20.85 1.9 21.09C1.93 21.26 2.01 21.41 2.12 21.52C2.23 21.64 2.37 21.73 2.52 21.77C3.74 22.17 4.97 22.57 6.17 22.92C6.43 23.07 6.71 23.17 7 23.22Z" fill="#2B2B2B" fill-opacity="1.000000" fill-rule="nonzero"/>
	<path id="Vector" d="M6.98 23.5C6.71 23.46 6.45 23.38 6.21 23.26C4.99 22.88 3.79 22.45 2.63 22.02C2.41 21.95 2.23 21.78 2.12 21.56C2 21.33 1.97 21.06 2.02 20.8C2.05 20.63 2.13 20.47 2.24 20.34C2.34 20.21 2.48 20.12 2.63 20.08L5.31 19.11L7 18.5L6.98 23.5Z" fill="#D61516" fill-opacity="1.000000" fill-rule="nonzero"/>
	<path id="Vector" d="M13.88 6.52L13.88 10.66C13.89 10.76 13.88 10.86 13.84 10.96C13.81 11.05 13.75 11.14 13.68 11.22C13.6 11.29 13.51 11.36 13.41 11.4C13.31 11.45 13.2 11.47 13.09 11.48C12.85 11.52 12.6 11.48 12.39 11.36C12.19 11.23 12.05 11.05 12 10.84L12 2.48C11.97 2.24 12.04 2.01 12.21 1.83C12.37 1.65 12.6 1.53 12.87 1.5C13.12 1.48 13.37 1.54 13.57 1.67C13.71 1.74 13.82 1.84 13.89 1.95C13.97 2.07 14 2.2 13.99 2.34L13.88 6.52Z" fill="#2B2B2B" fill-opacity="1.000000" fill-rule="nonzero"/>
	<path id="Vector" d="M10.88 6.52L10.88 10.66C10.89 10.76 10.88 10.86 10.84 10.96C10.81 11.05 10.75 11.14 10.68 11.22C10.6 11.29 10.51 11.36 10.41 11.4C10.31 11.45 10.2 11.47 10.09 11.48C9.85 11.52 9.6 11.48 9.39 11.36C9.19 11.23 9.05 11.05 9 10.84L9 2.48C8.97 2.24 9.04 2.01 9.21 1.83C9.37 1.65 9.6 1.53 9.87 1.5C10.12 1.48 10.37 1.54 10.57 1.67C10.71 1.74 10.82 1.84 10.89 1.95C10.97 2.07 11 2.2 10.99 2.34L10.88 6.52Z" fill="#2B2B2B" fill-opacity="1.000000" fill-rule="nonzero"/>
	<path id="Vector" d="M18.33 7.5C18.51 7.67 18.66 7.88 18.78 8.11C19.53 9.18 20.23 10.28 21 11.33C21.41 11.83 21.99 12.17 22.63 12.29C23.38 12.41 24.15 12.32 24.85 12.01C26.81 11.25 28.95 10.54 30.99 9.8L33.74 8.81C33.98 8.72 34.24 8.74 34.47 8.85C34.7 8.96 34.87 9.16 34.96 9.4C34.98 9.52 34.98 9.63 34.96 9.74C34.96 9.83 34.95 9.93 34.92 10.02C34.89 10.11 34.84 10.19 34.78 10.26L32.43 13.36C31.68 14.37 30.91 15.35 30.19 16.38C29.46 17.41 29.07 17.83 28.56 18.59C28.34 18.93 28.21 19.32 28.16 19.72C28.11 20.21 28.17 20.71 28.32 21.18C28.48 21.65 28.73 22.08 29.07 22.44C29.87 23.44 30.62 24.43 31.38 25.48C32.15 26.54 33.35 28.05 34.31 29.34C34.58 29.61 34.8 29.94 34.96 30.29C35 30.45 35.01 30.62 34.97 30.78C34.93 30.94 34.85 31.09 34.74 31.21C34.65 31.33 34.51 31.43 34.36 31.47C34.21 31.52 34.05 31.52 33.9 31.47L31.23 30.53L26.4 28.84C25.61 28.52 24.8 28.24 23.98 28.01C23.28 27.86 22.54 27.98 21.92 28.35C21.31 28.77 20.8 29.34 20.45 30L17.11 34.96L16.05 36.5L15.8 36.5C15.28 36.5 15.15 36.26 15.01 35.84C14.99 35.63 14.99 35.41 15.01 35.2L15.01 16.22C15.03 15.8 15.14 15.4 15.34 15.03C15.43 14.91 15.54 14.82 15.68 14.77C16.29 14.4 16.82 13.9 17.22 13.3C17.62 12.7 17.89 12.02 18.01 11.31C18.16 10.73 18.24 10.14 18.27 9.54C18.33 8.85 18.27 8.27 18.33 7.5Z" fill="#D61516" fill-opacity="1.000000" fill-rule="nonzero"/>
</svg>
