<svg width="10" height="12" viewBox="0 0 10 12" fill="none" xmlns="http://www.w3.org/2000/svg">
<path d="M1.66665 11.3333V10H0.99998C0.811091 10 0.652757 9.93611 0.52498 9.80833C0.397202 9.68056 0.333313 9.52222 0.333313 9.33333C0.333313 9.14444 0.397202 8.98611 0.52498 8.85833C0.652757 8.73056 0.811091 8.66667 0.99998 8.66667H1.66665V7.33333H0.99998C0.811091 7.33333 0.652757 7.26944 0.52498 7.14167C0.397202 7.01389 0.333313 6.85556 0.333313 6.66667C0.333313 6.47778 0.397202 6.31944 0.52498 6.19167C0.652757 6.06389 0.811091 6 0.99998 6H1.66665V0.666667C1.66665 0.477778 1.73054 0.319444 1.85831 0.191667C1.98609 0.0638889 2.14442 0 2.33331 0H5.99998C7.0222 0 7.88887 0.355556 8.59998 1.06667C9.31109 1.77778 9.66665 2.64444 9.66665 3.66667C9.66665 4.68889 9.31109 5.55556 8.59998 6.26667C7.88887 6.97778 7.0222 7.33333 5.99998 7.33333H2.99998V8.66667H4.99998C5.18887 8.66667 5.3472 8.73056 5.47498 8.85833C5.60276 8.98611 5.66665 9.14444 5.66665 9.33333C5.66665 9.52222 5.60276 9.68056 5.47498 9.80833C5.3472 9.93611 5.18887 10 4.99998 10H2.99998V11.3333C2.99998 11.5222 2.93609 11.6806 2.80831 11.8083C2.68054 11.9361 2.5222 12 2.33331 12C2.14442 12 1.98609 11.9361 1.85831 11.8083C1.73054 11.6806 1.66665 11.5222 1.66665 11.3333ZM2.99998 6H5.99998C6.64442 6 7.19442 5.77222 7.64998 5.31667C8.10554 4.86111 8.33331 4.31111 8.33331 3.66667C8.33331 3.02222 8.10554 2.47222 7.64998 2.01667C7.19442 1.56111 6.64442 1.33333 5.99998 1.33333H2.99998V6Z" fill="#AB9C9E"/>
</svg>
