<svg width="15.000000" height="15.000000" viewBox="0 0 15 15" fill="none" xmlns="http://www.w3.org/2000/svg" xmlns:xlink="http://www.w3.org/1999/xlink">
	<desc>
			Created with Pixso.
	</desc>
	<defs/>
	<path id="receipt_long" d="M1.99 14.91C1.41 14.91 0.92 14.71 0.52 14.31C0.11 13.9 -0.09 13.41 -0.09 12.83L-0.09 11.5C-0.09 11.28 -0.02 11.1 0.13 10.96C0.27 10.82 0.45 10.75 0.66 10.75L2.41 10.75L2.41 -0.35C2.41 -0.44 2.45 -0.49 2.52 -0.52C2.59 -0.55 2.65 -0.54 2.72 -0.49L3.33 0.02C3.4 0.08 3.48 0.11 3.57 0.11C3.65 0.11 3.73 0.08 3.8 0.02L4.5 -0.55C4.57 -0.61 4.65 -0.64 4.74 -0.64C4.82 -0.64 4.9 -0.61 4.97 -0.55L5.67 0.02C5.74 0.08 5.82 0.11 5.91 0.11C5.99 0.11 6.07 0.08 6.14 0.02L6.84 -0.55C6.91 -0.61 6.99 -0.64 7.08 -0.64C7.16 -0.64 7.24 -0.61 7.31 -0.55L8.01 0.02C8.08 0.08 8.16 0.11 8.24 0.11C8.33 0.11 8.41 0.08 8.48 0.02L9.18 -0.55C9.25 -0.61 9.33 -0.64 9.41 -0.64C9.5 -0.64 9.58 -0.61 9.65 -0.55L10.35 0.02C10.42 0.08 10.5 0.11 10.58 0.11C10.67 0.11 10.75 0.08 10.82 0.02L11.52 -0.55C11.59 -0.61 11.67 -0.64 11.75 -0.64C11.84 -0.64 11.92 -0.61 11.99 -0.55L12.69 0.02C12.76 0.08 12.84 0.11 12.92 0.11C13.01 0.11 13.09 0.08 13.16 0.02L13.77 -0.49C13.84 -0.54 13.9 -0.55 13.97 -0.52C14.04 -0.49 14.08 -0.44 14.08 -0.35L14.08 12.83C14.08 13.41 13.88 13.9 13.47 14.31C13.07 14.71 12.58 14.91 11.99 14.91L1.99 14.91ZM11.99 13.66C12.23 13.66 12.43 13.58 12.59 13.42C12.75 13.26 12.83 13.06 12.83 12.83L12.83 1.16L3.66 1.16L3.66 10.75L10.41 10.75C10.62 10.75 10.8 10.82 10.95 10.96C11.09 11.1 11.16 11.28 11.16 11.5L11.16 12.83C11.16 13.06 11.24 13.26 11.4 13.42C11.56 13.58 11.76 13.66 11.99 13.66ZM5.28 3.04L8.76 3.04C8.94 3.04 9.08 3.1 9.2 3.22C9.32 3.34 9.38 3.48 9.38 3.66C9.38 3.84 9.32 3.99 9.2 4.11C9.08 4.23 8.94 4.29 8.76 4.29L5.28 4.29C5.1 4.29 4.95 4.23 4.83 4.11C4.72 3.99 4.66 3.84 4.66 3.66C4.66 3.48 4.72 3.34 4.83 3.22C4.95 3.1 5.1 3.04 5.28 3.04ZM5.28 5.54L8.76 5.54C8.94 5.54 9.08 5.6 9.2 5.72C9.32 5.84 9.38 5.98 9.38 6.16C9.38 6.34 9.32 6.49 9.2 6.61C9.08 6.73 8.94 6.79 8.76 6.79L5.28 6.79C5.1 6.79 4.95 6.73 4.83 6.61C4.72 6.49 4.66 6.34 4.66 6.16C4.66 5.98 4.72 5.84 4.83 5.72C4.95 5.6 5.1 5.54 5.28 5.54ZM11.11 4.4C10.91 4.4 10.74 4.33 10.59 4.18C10.45 4.04 10.38 3.87 10.38 3.66C10.38 3.46 10.45 3.28 10.59 3.14C10.74 3 10.91 2.92 11.11 2.92C11.32 2.92 11.49 3 11.64 3.14C11.78 3.28 11.85 3.46 11.85 3.66C11.85 3.87 11.78 4.04 11.64 4.18C11.49 4.33 11.32 4.4 11.11 4.4ZM11.11 6.9C10.91 6.9 10.74 6.83 10.59 6.68C10.45 6.54 10.38 6.37 10.38 6.16C10.38 5.96 10.45 5.78 10.59 5.64C10.74 5.5 10.91 5.42 11.11 5.42C11.32 5.42 11.49 5.5 11.64 5.64C11.78 5.78 11.85 5.96 11.85 6.16C11.85 6.37 11.78 6.54 11.64 6.68C11.49 6.83 11.32 6.9 11.11 6.9ZM1.99 13.66L9.91 13.66L9.91 12L1.16 12L1.16 12.83C1.16 13.06 1.24 13.26 1.4 13.42C1.56 13.58 1.76 13.66 1.99 13.66Z" fill="#584B4D" fill-opacity="1.000000" fill-rule="nonzero"/>
</svg>
