<svg width="21.000000" height="22.000000" viewBox="0 0 21 22" fill="none" xmlns="http://www.w3.org/2000/svg" xmlns:xlink="http://www.w3.org/1999/xlink">
	<desc>
			Created with Pixso.
	</desc>
	<defs/>
	<path id="Vector" d="M20.78 19.63L14.96 13.81C16.37 11.96 16.98 9.62 16.66 7.32C16.35 5.01 15.13 2.93 13.28 1.52C11.43 0.11 9.1 -0.5 6.79 -0.19C4.49 0.11 2.41 1.33 1 3.17C-0.29 4.86 -0.93 6.96 -0.78 9.07C-0.64 11.19 0.26 13.19 1.76 14.69C3.26 16.19 5.26 17.1 7.37 17.24C9.49 17.38 11.59 16.75 13.28 15.46L19.09 21.28L20.78 19.63ZM8.02 14.87C6.76 14.87 5.53 14.5 4.49 13.81C3.44 13.11 2.63 12.12 2.15 10.96C1.67 9.8 1.54 8.53 1.78 7.3C2.02 6.07 2.63 4.93 3.51 4.04C4.4 3.16 5.53 2.55 6.76 2.3C7.99 2.06 9.27 2.18 10.43 2.66C11.59 3.14 12.58 3.95 13.28 4.99C13.98 6.03 14.35 7.26 14.35 8.52C14.36 9.35 14.19 10.18 13.87 10.95C13.56 11.72 13.09 12.42 12.5 13.01C11.91 13.6 11.21 14.07 10.45 14.39C9.68 14.71 8.85 14.87 8.02 14.87Z" fill="#FFFFFF" fill-opacity="1.000000" fill-rule="nonzero"/>
</svg>
