<svg width="17.000000" height="16.000000" viewBox="0 0 17 16" fill="none" xmlns="http://www.w3.org/2000/svg" xmlns:xlink="http://www.w3.org/1999/xlink">
	<desc>
			Created with Pixso.
	</desc>
	<defs/>
	<path id="family_star" d="M8 11.33C8.66 11.33 9.26 11.13 9.78 10.73C10.3 10.34 10.68 9.83 10.91 9.2L5.08 9.2C5.31 9.83 5.69 10.34 6.21 10.73C6.73 11.13 7.33 11.33 8 11.33ZM5.91 8C6.26 8 6.55 7.87 6.8 7.63C7.04 7.39 7.16 7.09 7.16 6.75C7.16 6.4 7.04 6.1 6.8 5.86C6.55 5.62 6.26 5.5 5.91 5.5C5.56 5.5 5.27 5.62 5.03 5.86C4.78 6.1 4.66 6.4 4.66 6.75C4.66 7.09 4.78 7.39 5.03 7.63C5.27 7.87 5.56 8 5.91 8ZM10.08 8C10.43 8 10.72 7.87 10.96 7.63C11.21 7.39 11.33 7.09 11.33 6.75C11.33 6.4 11.21 6.1 10.96 5.86C10.72 5.62 10.43 5.5 10.08 5.5C9.73 5.5 9.44 5.62 9.19 5.86C8.95 6.1 8.83 6.4 8.83 6.75C8.83 7.09 8.95 7.39 9.19 7.63C9.44 7.87 9.73 8 10.08 8ZM4.35 3.33L6.68 0.31C6.85 0.09 7.05 -0.08 7.28 -0.18C7.51 -0.29 7.75 -0.34 8 -0.34C8.25 -0.34 8.48 -0.29 8.71 -0.18C8.94 -0.08 9.14 0.09 9.31 0.31L11.64 3.33L15.18 4.52C15.54 4.63 15.83 4.83 16.04 5.13C16.25 5.43 16.35 5.76 16.35 6.12C16.35 6.29 16.32 6.45 16.28 6.62C16.23 6.79 16.15 6.95 16.04 7.1L13.75 10.35L13.83 13.77C13.84 14.25 13.68 14.66 13.35 15C13.02 15.33 12.63 15.5 12.18 15.5C12.15 15.5 12 15.47 11.72 15.43L8 14.39L4.27 15.43C4.2 15.46 4.12 15.48 4.04 15.48C3.95 15.49 3.88 15.5 3.81 15.5C3.36 15.5 2.97 15.33 2.64 15C2.31 14.66 2.15 14.25 2.16 13.77L2.25 10.33L-0.03 7.1C-0.14 6.95 -0.22 6.79 -0.27 6.62C-0.31 6.45 -0.34 6.29 -0.34 6.12C-0.34 5.77 -0.24 5.45 -0.04 5.15C0.17 4.85 0.45 4.64 0.81 4.52L4.35 3.33Z" fill="#A72536" fill-opacity="1.000000" fill-rule="nonzero"/>
</svg>
